<svg width="138" height="158" viewBox="0 0 138 158" fill="none" xmlns="http://www.w3.org/2000/svg">
<g filter="url(#filter0_d)">
<path fill-rule="evenodd" clip-rule="evenodd" d="M5.62622 36.4668C6.44113 35.3054 7.2622 34.949 7.2622 34.949C7.2622 34.949 56.2868 6.31121 64.9341 1.32305C65.6383 0.910029 66.021 0.685656 66.021 0.685656C66.021 0.685656 67.1435 -0.0429882 69 0.00203432C70.8565 -0.0429895 71.979 0.685656 71.979 0.685656C71.979 0.685656 72.3618 0.910074 73.0661 1.32317C81.714 6.31168 130.738 34.949 130.738 34.949C130.738 34.949 131.559 35.3054 132.374 36.4668C133.958 37.9333 133.999 39.844 133.999 39.844C133.999 39.844 133.994 46.3408 133.988 55.3835C133.991 69.2333 133.982 90.3932 133.977 101.108C133.979 104.042 133.982 106.417 133.987 107.989C133.998 108.153 134.008 108.434 133.99 108.797C133.993 109.406 133.996 109.816 133.999 110C134.057 113.106 130.224 115.439 130.224 115.439L72.5183 149.157C71.2876 149.814 70.0682 150.016 69 149.999C67.9317 150.016 66.7124 149.814 65.4817 149.157L7.77571 115.439C7.77571 115.439 3.94276 113.106 4.00065 110C4.00412 109.816 4.00718 109.406 4.00986 108.797C3.99206 108.434 4.00216 108.153 4.01285 107.989C4.0178 106.417 4.0212 104.042 4.02338 101.108C4.01805 90.3928 4.00895 69.2296 4.01233 55.3797C4.0063 46.339 4.00064 39.844 4.00064 39.844C4.00064 39.844 4.04165 37.9333 5.62622 36.4668ZM27.0663 109.859C38.8815 116.733 66.7161 133.037 66.7161 133.037C66.7161 133.037 67.657 133.551 69 133.672C70.343 133.551 71.2839 133.037 71.2839 133.037C71.2839 133.037 99.1185 116.733 110.934 109.859L71.7689 85.8767C71.7689 85.8767 69.8885 84.6202 69 81.8386C68.1116 84.6202 66.2311 85.8767 66.2311 85.8767L27.0663 109.859ZM68.5453 66.8685L18.4437 97.5593C18.4421 94.7954 18.4401 90.4328 18.4386 85.4388L18.434 63.3262C18.4345 56.4749 18.4376 51.0209 18.4457 49.6164C18.4746 44.7445 20.9863 43.6572 20.9863 43.6572C20.9863 43.6572 64.3218 18.4244 67.1391 16.8432C67.8188 16.5491 68.4436 16.3982 69 16.3383C69.5564 16.3982 70.1812 16.5491 70.8609 16.8432C73.6783 18.4244 117.014 43.6572 117.014 43.6572C117.014 43.6572 119.525 44.7445 119.554 49.6164C119.562 51.0209 119.565 56.4749 119.566 63.3262L119.561 85.4388C119.56 90.4328 119.558 94.7954 119.556 97.5593L69.4547 66.8685V66.3114L69 66.59L68.5453 66.3114V66.8685Z" fill="#38ABBE"/>
</g>
<defs>
<filter id="filter0_d" x="0" y="3.05176e-05" width="138" height="158" filterUnits="userSpaceOnUse" color-interpolation-filters="sRGB">
<feFlood flood-opacity="0" result="BackgroundImageFix"/>
<feColorMatrix in="SourceAlpha" type="matrix" values="0 0 0 0 0 0 0 0 0 0 0 0 0 0 0 0 0 0 127 0" result="hardAlpha"/>
<feOffset dy="4"/>
<feGaussianBlur stdDeviation="2"/>
<feComposite in2="hardAlpha" operator="out"/>
<feColorMatrix type="matrix" values="0 0 0 0 0 0 0 0 0 0 0 0 0 0 0 0 0 0 0.25 0"/>
<feBlend mode="normal" in2="BackgroundImageFix" result="effect1_dropShadow"/>
<feBlend mode="normal" in="SourceGraphic" in2="effect1_dropShadow" result="shape"/>
</filter>
</defs>
</svg>
